M48
; DRILL file {KiCad 7.0.8} date 2023 December 27, Wednesday 07:41:52
; FORMAT={-:-/ absolute / inch / decimal}
; #@! TF.CreationDate,2023-12-27T07:41:52-05:00
; #@! TF.GenerationSoftware,Kicad,Pcbnew,7.0.8
; #@! TF.FileFunction,Plated,1,2,PTH
FMAT,2
INCH
; #@! TA.AperFunction,Plated,PTH,ViaDrill
T1C0.0157
; #@! TA.AperFunction,Plated,PTH,ComponentDrill
T2C0.0236
; #@! TA.AperFunction,Plated,PTH,ComponentDrill
T3C0.0276
; #@! TA.AperFunction,Plated,PTH,ComponentDrill
T4C0.0281
; #@! TA.AperFunction,Plated,PTH,ComponentDrill
T5C0.0295
; #@! TA.AperFunction,Plated,PTH,ComponentDrill
T6C0.0300
; #@! TA.AperFunction,Plated,PTH,ViaDrill
T7C0.0315
; #@! TA.AperFunction,Plated,PTH,ComponentDrill
T8C0.0315
; #@! TA.AperFunction,Plated,PTH,ComponentDrill
T9C0.0394
; #@! TA.AperFunction,Plated,PTH,ComponentDrill
T10C0.0433
; #@! TA.AperFunction,Plated,PTH,ComponentDrill
T11C0.0469
; #@! TA.AperFunction,Plated,PTH,ComponentDrill
T12C0.0472
; #@! TA.AperFunction,Plated,PTH,ComponentDrill
T13C0.0512
; #@! TA.AperFunction,Plated,PTH,ComponentDrill
T14C0.0630
%
G90
G05
T1
X1.9291Y-5.1969
X2.2441Y-4.9606
X2.4902Y-5.0886
X2.5394Y-5.1378
X3.4252Y-5.3543
X3.7008Y-4.3307
X3.7205Y-4.1083
X3.7933Y-4.2224
X4.0551Y-2.5591
X4.1732Y-1.4173
X4.2126Y-3.7717
X4.312Y-2.4803
X4.3701Y-1.811
X4.4803Y-2.5955
X4.9094Y-3.0492
X5.2397Y-4.0748
X5.315Y-3.2382
X5.4035Y-3.7795
T2
X3.061Y-3.6122
X3.1201Y-3.6122
X3.563Y-2.6476
X3.622Y-2.6476
X3.6239Y-1.502
X3.683Y-1.502
X3.8326Y-5.2756
X3.8916Y-5.2756
X4.0354Y-3.0315
X4.0945Y-3.0315
T3
X3.3146Y-3.4646
X3.3146Y-3.622
X3.3146Y-3.7795
X3.3146Y-3.937
X3.3146Y-4.0945
X3.3146Y-4.5669
X3.3165Y-4.4094
X3.3185Y-4.252
X3.5902Y-2.0472
X3.5902Y-2.2244
X3.6146Y-3.4646
X3.6146Y-3.622
X3.6146Y-3.7795
X3.6146Y-3.937
X3.6146Y-4.0945
X3.6146Y-4.5669
X3.6165Y-4.4094
X3.6185Y-4.252
X3.7157Y-2.7559
X3.8657Y-4.3307
X3.8657Y-4.4882
X3.8902Y-2.0472
X3.8902Y-2.2244
X4.0157Y-2.7559
X4.0246Y-1.8963
X4.0246Y-2.1963
X4.1657Y-4.3307
X4.1657Y-4.4882
X4.2594Y-4.5669
X4.2988Y-2.7165
X4.5594Y-4.5669
X4.5988Y-2.7165
X4.662Y-4.0541
X4.7319Y-5.0394
X4.7713Y-2.2835
X4.7713Y-2.4409
X4.7713Y-2.7165
X4.7713Y-2.874
X4.7717Y-3.0709
X4.7787Y-1.6535
X4.7787Y-1.811
X4.962Y-4.0541
X5.0319Y-5.0394
X5.0713Y-2.2835
X5.0713Y-2.4409
X5.0713Y-2.7165
X5.0713Y-2.874
X5.0717Y-3.0709
X5.0787Y-1.6535
X5.0787Y-1.811
X5.1181Y-1.8972
X5.1181Y-2.1972
X5.2362Y-3.3146
X5.2362Y-3.6146
X5.2756Y-1.8972
X5.2756Y-2.1972
X5.3839Y-3.098
X5.3839Y-3.398
T4
X3.7376Y-2.4764
X3.8376Y-2.3764
X3.9376Y-2.4764
X4.2799Y-3.503
X4.3469Y-3.0738
X4.3799Y-3.403
X4.4469Y-2.9738
X4.4799Y-3.503
X4.5469Y-3.0738
X4.8187Y-3.5039
X4.9187Y-3.4039
X5.0187Y-3.5039
T5
X3.9264Y-4.124
X3.9764Y-4.074
X4.0264Y-4.124
X4.5063Y-1.6535
X4.5563Y-1.6535
X4.6063Y-1.6535
X4.8606Y-2.0472
X4.9106Y-2.0472
X4.9606Y-2.0472
T6
X2.0378Y-3.9669
X2.0378Y-4.0669
X2.0378Y-4.1669
X2.0378Y-4.2669
X2.0378Y-4.3669
X2.0378Y-4.4669
X2.0378Y-4.5669
X2.0378Y-4.6669
X2.0378Y-4.7669
X2.0378Y-4.8669
X2.0378Y-4.9669
X2.0378Y-5.0669
X2.0378Y-5.1669
X2.0378Y-5.2669
X2.1378Y-5.2669
X2.2378Y-5.2669
X2.3378Y-5.2669
X2.4378Y-5.2669
X2.5378Y-5.2669
X2.6378Y-3.9669
X2.6378Y-4.0669
X2.6378Y-4.1669
X2.6378Y-4.2669
X2.6378Y-4.3669
X2.6378Y-4.4669
X2.6378Y-4.5669
X2.6378Y-4.6669
X2.6378Y-4.7669
X2.6378Y-4.8669
X2.6378Y-4.9669
X2.6378Y-5.0669
X2.6378Y-5.1669
X2.6378Y-5.2669
T7
X3.3071Y-1.811
T8
X2.6575Y-3.8189
X2.7559Y-3.8189
X2.8937Y-3.2382
X2.9921Y-3.2382
X3.1102Y-3.3563
X3.2087Y-3.3563
X3.315Y-4.9754
X3.315Y-5.0754
X3.315Y-5.1754
X3.315Y-5.2754
X3.315Y-5.3754
X3.315Y-5.4754
X3.315Y-5.5754
X3.3268Y-1.5354
X3.4252Y-1.5354
X3.615Y-4.9754
X3.615Y-5.0754
X3.615Y-5.1754
X3.615Y-5.2754
X3.615Y-5.3754
X3.615Y-5.4754
X3.615Y-5.5754
X3.6319Y-2.8642
X3.6614Y-3.3465
X3.7303Y-2.8642
X3.7303Y-5.5413
X3.7598Y-3.3465
X3.8189Y-3.5118
X3.8189Y-3.6118
X3.8189Y-3.7118
X3.8189Y-3.8118
X3.8189Y-3.937
X3.8287Y-5.5413
X3.9173Y-3.3465
X3.9173Y-3.937
X4.0157Y-3.3465
X4.0945Y-1.7717
X4.1189Y-3.5118
X4.1189Y-3.6118
X4.1189Y-3.7118
X4.1189Y-3.8118
X4.1488Y-1.8866
X4.1488Y-1.9866
X4.1488Y-2.0866
X4.1488Y-2.1866
X4.1488Y-2.2866
X4.1488Y-2.3866
X4.1488Y-2.4866
X4.1929Y-1.7717
X4.4488Y-1.8866
X4.4488Y-1.9866
X4.4488Y-2.0866
X4.4488Y-2.1866
X4.4488Y-2.2866
X4.4488Y-2.3866
X4.4488Y-2.4866
X4.5669Y-1.8898
X4.5669Y-1.9882
X4.5669Y-2.3819
X4.5669Y-2.4803
X4.9016Y-4.4882
X5.0394Y-4.4882
X5.1378Y-3.8945
X5.1378Y-4.2945
X5.3543Y-3.8681
X5.4528Y-3.8681
T9
X2.0472Y-3.6008
X2.0472Y-3.7008
X2.3378Y-5.4331
X2.4378Y-5.4331
X2.5378Y-5.4331
X2.6378Y-5.4331
X2.8201Y-5.2657
X2.8496Y-3.9717
X2.8496Y-4.0717
X2.8496Y-4.1717
X2.8496Y-4.2717
X2.8496Y-4.3717
X2.8642Y-4.6114
X2.8642Y-4.7114
X2.8642Y-4.8114
X2.8642Y-4.9114
X2.8642Y-5.0114
X2.9201Y-5.2657
X3.0201Y-5.2657
X3.1201Y-5.2657
X3.5417Y-3.1299
X3.6417Y-3.1299
X3.7128Y-1.8898
X3.7417Y-3.1299
X3.8128Y-1.8898
X5.1969Y-2.4409
X5.1969Y-2.5409
X5.2854Y-2.8839
X5.2854Y-2.9839
T10
X2.6559Y-3.6199
X2.7559Y-3.6199
X2.8559Y-3.6199
X2.9102Y-1.5354
X3.0102Y-1.5354
X3.1102Y-1.5354
X3.3954Y-2.4409
X3.5954Y-2.4409
X4.1732Y-4.6819
X4.1732Y-5.0819
X4.3701Y-3.7764
X4.3701Y-4.1764
X4.7606Y-3.8976
X4.8606Y-3.8976
X4.9606Y-3.8976
T11
X3.9913Y-1.5354
X4.0913Y-1.5354
X4.1913Y-1.5354
X4.2913Y-1.5354
T12
X3.0197Y-2.0394
X3.0197Y-2.8425
X3.315Y-2.0394
X3.315Y-2.8425
X5.2559Y-4.7146
X5.3937Y-4.7146
T13
X2.2441Y-1.8976
X2.3819Y-1.8976
X2.5197Y-1.8976
T14
X2.1319Y-2.2736
X2.1319Y-2.5886
X2.1319Y-2.8839
X2.1319Y-3.189
X2.6319Y-2.2736
X2.6319Y-2.5886
X2.6319Y-2.8839
X2.6319Y-3.189
X4.5531Y-4.8031
X5.0531Y-4.8031
T0
M30
